<?xml version="1.0" encoding="UTF-8" standalone="no"?>
<svg
   xmlns:dc="http://purl.org/dc/elements/1.1/"
   xmlns:cc="http://creativecommons.org/ns#"
   xmlns:rdf="http://www.w3.org/1999/02/22-rdf-syntax-ns#"
   xmlns:svg="http://www.w3.org/2000/svg"
   xmlns="http://www.w3.org/2000/svg"
   xmlns:sodipodi="http://sodipodi.sourceforge.net/DTD/sodipodi-0.dtd"
   xmlns:inkscape="http://www.inkscape.org/namespaces/inkscape"
   version="1.0"
   width="818.000000pt"
   height="1280.000000pt"
   viewBox="0 0 818.000000 1280.000000"
   preserveAspectRatio="xMidYMid meet"
   id="svg221"
   sodipodi:docname="medusa.svg"
   inkscape:version="0.92.5 (2060ec1f9f, 2020-04-08)">
  <defs
     id="defs225" />
  <sodipodi:namedview
     pagecolor="#ffffff"
     bordercolor="#666666"
     borderopacity="1"
     objecttolerance="10"
     gridtolerance="10"
     guidetolerance="10"
     inkscape:pageopacity="0"
     inkscape:pageshadow="2"
     inkscape:window-width="1848"
     inkscape:window-height="1016"
     id="namedview223"
     showgrid="false"
     inkscape:zoom="0.46875"
     inkscape:cx="545.33333"
     inkscape:cy="853.33333"
     inkscape:window-x="72"
     inkscape:window-y="27"
     inkscape:window-maximized="1"
     inkscape:current-layer="svg221" />
  <metadata
     id="metadata215">
Created by potrace 1.15, written by Peter Selinger 2001-2017
<rdf:RDF>
  <cc:Work
     rdf:about="">
    <dc:format>image/svg+xml</dc:format>
    <dc:type
       rdf:resource="http://purl.org/dc/dcmitype/StillImage" />
  </cc:Work>
</rdf:RDF>
</metadata>
  <g
     transform="translate(0.000000,1280.000000) scale(0.100000,-0.100000)"
     fill="#000000"
     stroke="none"
     id="g219"
     style="fill:#c492b1;fill-opacity:1">
    <path
       d="M3140 12789 c-140 -18 -205 -38 -301 -95 -146 -87 -366 -207 -710 -387 -530 -279 -587 -315 -735 -470 -173 -179 -259 -364 -284 -610 -17 -168 13 -323 86 -438 45 -72 112 -146 162 -178 62 -40 255 -122 370 -158 50 -15 92 -31 92 -34 0 -3 -60 -59 -132 -124 -179 -160 -558 -540 -697 -700 -872 -999 -1164 -1896 -890 -2730 22 -66 73 -187 114 -270 130 -263 278 -466 530 -723 140 -144 156 -157 240 -197 251 -122 524 -163 997 -151 l257 6 11 -42 c6 -24 29 -96 50 -161 l39 -119 -26 -81 c-14 -45 -70 -194 -124 -330 -151 -380 -197 -539 -220 -767 -26 -259 25 -542 145 -807 36 -81 60 -193 54 -260 l-3 -38 -60 -3 c-69 -4 -299 14 -364 29 -54 12 -75 6 -90 -27 -20 -44 6 -70 81 -83 81 -14 275 -31 355 -31 l63 0 -7 -32 c-14 -76 -79 -276 -150 -458 -174 -450 -195 -509 -233 -632 -22 -71 -49 -180 -61 -242 l-21 -114 -77 -20 c-130 -36 -259 -53 -444 -59 -157 -5 -181 -8 -203 -26 -19 -15 -24 -27 -22 -51 l3 -31 175 1 c187 1 323 18 474 58 l86 23 0 -52 c0 -76 26 -215 55 -291 122 -324 465 -542 1035 -657 193 -39 214 -41 233 -22 22 22 22 72 0 83 -10 5 -61 17 -113 26 -465 83 -795 233 -953 434 -94 121 -134 234 -144 409 l-6 111 44 22 c198 101 360 274 440 470 l33 81 50 -58 c273 -315 690 -481 1216 -483 l125 -1 -50 -26 c-135 -70 -315 -109 -465 -100 -52 4 -109 9 -126 13 -25 5 -37 1 -53 -15 -26 -26 -26 -42 -3 -70 13 -16 37 -23 107 -32 144 -19 299 -1 460 51 33 11 125 29 204 40 144 20 145 20 178 0 19 -11 42 -20 52 -20 19 0 44 24 53 50 4 11 37 21 104 34 274 51 580 146 766 239 l107 53 91 -91 c76 -76 90 -95 90 -122 0 -42 -72 -181 -183 -355 -110 -173 -122 -203 -107 -282 7 -33 20 -81 31 -108 10 -27 19 -50 19 -52 0 -2 -27 -6 -59 -9 -103 -11 -161 -40 -242 -121 -91 -90 -124 -150 -124 -226 0 -62 18 -104 57 -133 45 -34 71 -18 118 71 79 152 175 255 276 299 24 10 69 16 119 17 l80 1 14 40 c8 24 14 81 14 140 0 85 -4 113 -30 188 l-30 88 60 67 c127 142 193 248 203 325 7 46 -23 135 -109 333 l-44 100 136 59 c142 61 612 294 739 365 72 41 73 42 70 78 -2 29 -8 39 -29 46 -21 7 -55 -8 -235 -103 -175 -93 -520 -260 -588 -284 -15 -6 -17 -4 -11 10 5 10 17 50 27 88 69 252 -75 576 -405 912 l-91 92 43 177 c147 614 159 1135 34 1457 -14 37 -24 69 -21 72 16 16 139 25 339 25 252 0 273 -4 377 -65 31 -18 149 -101 260 -184 253 -188 247 -186 492 -178 106 3 230 13 315 27 80 12 158 19 182 16 65 -9 190 -78 285 -158 39 -33 148 -297 148 -358 0 -97 -58 -251 -220 -585 l-92 -190 5 -75 c3 -41 17 -114 32 -162 25 -77 26 -90 15 -118 -23 -57 -101 -114 -232 -171 -113 -49 -129 -60 -198 -129 -87 -87 -131 -160 -254 -415 l-87 -180 251 257 c241 247 255 260 353 314 202 114 284 177 308 243 8 20 5 43 -10 96 -42 141 -44 267 -6 375 34 96 119 233 197 315 68 72 78 88 93 146 23 85 23 209 1 283 -9 32 -15 61 -12 64 3 3 6 0 6 -6 0 -30 257 -218 425 -312 33 -18 68 -40 78 -48 25 -22 21 -60 -10 -105 -56 -81 -317 -249 -526 -340 l-98 -42 80 -3 c211 -8 487 97 635 242 94 92 140 202 104 248 -7 8 -76 64 -153 123 -241 186 -335 266 -529 454 l-109 106 -63 215 c-76 261 -115 371 -157 441 l-32 54 -125 11 c-69 7 -136 16 -150 22 -48 19 -68 55 -110 197 -108 366 -131 426 -189 496 -59 71 -70 73 -362 59 -264 -13 -443 -10 -514 11 -89 25 -149 60 -187 110 -56 72 -160 153 -269 209 -71 37 -103 59 -118 84 -30 48 -105 115 -154 136 -23 11 -78 26 -121 35 -170 35 -362 125 -625 293 l-54 35 82 27 c45 15 85 30 87 33 16 16 -15 53 -79 94 -131 86 -286 259 -379 423 l-26 45 110 200 c137 247 393 752 477 940 292 650 400 1068 370 1439 -5 66 -30 216 -54 335 -25 118 -45 216 -45 217 0 4 101 13 285 24 366 22 765 90 885 151 196 98 276 511 150 774 -28 58 -57 89 -283 304 -603 571 -883 788 -1277 990 -153 79 -258 112 -525 166 -295 59 -587 80 -785 54z m-1153 -2407 c9 -6 -38 -57 -148 -161 -333 -319 -639 -689 -805 -976 -15 -27 -68 -99 -117 -160 -139 -173 -224 -317 -290 -495 -215 -577 -19 -1217 590 -1926 249 -291 337 -387 513 -562 192 -191 282 -263 407 -326 52 -26 57 -33 68 -97 l7 -36 -114 -6 c-372 -22 -720 7 -924 77 -158 53 -200 81 -344 226 -774 776 -922 1637 -447 2586 280 560 717 1089 1437 1741 74 67 140 122 145 122 6 1 16 -3 22 -7z m213 -44 c0 -37 -75 -135 -189 -249 -108 -107 -621 -539 -621 -522 0 3 44 58 97 121 105 125 268 297 434 457 194 188 215 205 248 205 18 0 31 -5 31 -12z m348 -24 c61 -4 112 -10 112 -14 0 -11 -70 -123 -111 -177 -22 -29 -107 -130 -191 -225 -287 -329 -386 -481 -463 -711 -46 -140 -59 -239 -52 -416 4 -109 12 -172 31 -249 50 -200 142 -408 273 -620 50 -82 65 -115 64 -140 -1 -19 -28 -84 -59 -146 -127 -244 -182 -414 -182 -555 0 -79 3 -89 44 -175 43 -88 101 -249 132 -371 23 -88 27 -620 4 -601 -308 255 -682 619 -810 786 -273 359 -432 684 -506 1032 -35 169 -44 433 -20 598 32 222 97 428 207 659 52 109 68 133 141 208 128 132 260 249 554 488 385 315 549 485 586 609 l12 38 60 -6 c34 -3 112 -9 174 -12z m1972 8 c0 -4 -13 -29 -29 -54 -39 -62 -128 -150 -227 -224 -119 -91 -263 -194 -270 -194 -4 0 14 22 38 48 111 119 224 300 243 389 l6 32 97 4 c53 1 107 4 120 5 12 1 22 -2 22 -6z m-355 -24 c-14 -46 -77 -155 -128 -223 l-52 -70 -7 95 c-3 52 -9 121 -13 152 l-6 57 53 4 c29 2 77 4 106 5 51 2 53 1 47 -20z m-925 5 c0 -23 -52 -219 -76 -283 -64 -178 -189 -387 -313 -524 -86 -95 -105 -139 -99 -238 l4 -73 -89 -135 c-183 -276 -332 -636 -394 -947 -15 -79 -30 -143 -33 -143 -10 0 -138 244 -173 330 -84 206 -117 358 -117 540 0 179 30 310 110 475 71 149 162 271 408 552 159 181 224 269 270 365 l37 76 160 4 c88 2 193 5 233 6 39 1 72 -1 72 -5z m1388 -215 c49 -235 55 -282 54 -438 0 -397 -156 -867 -544 -1644 -118 -236 -343 -662 -359 -680 -5 -6 -11 -3 -14 7 -4 10 8 36 33 69 76 101 94 160 94 299 -1 137 -40 291 -127 494 l-37 86 68 72 c93 98 101 114 86 180 -51 221 -62 288 -62 387 l0 105 36 3 c20 1 39 4 43 6 4 3 3 49 -2 103 -5 54 -6 152 -2 218 5 114 36 299 55 334 4 9 92 77 194 151 103 73 218 160 257 193 66 55 179 181 179 199 0 4 3 8 8 8 4 0 22 -69 40 -152z m-1154 -628 c-130 -146 -252 -301 -345 -440 -81 -121 -81 -123 -22 114 40 163 76 262 133 377 61 120 89 158 134 181 59 30 159 135 182 190 l19 48 3 -175 2 -175 -106 -120z m140 -146 c8 -38 19 -80 24 -94 8 -22 4 -28 -41 -60 -66 -46 -125 -134 -172 -254 -43 -112 -42 -128 17 -192 34 -37 44 -56 54 -112 29 -145 28 -353 -2 -459 -4 -16 -1 -23 16 -28 12 -4 27 -1 35 5 21 17 20 -4 -10 -224 -42 -309 -115 -668 -164 -810 -37 -105 -24 -231 33 -317 31 -46 32 -56 7 -88 l-19 -24 -138 130 c-77 72 -167 160 -201 195 l-62 63 -12 90 c-14 104 -7 290 15 410 34 190 58 268 117 382 33 62 59 124 59 138 0 14 -25 82 -56 151 -72 164 -113 266 -120 302 -17 84 289 548 523 793 42 44 77 78 79 76 2 -2 10 -34 18 -73z m-2874 -780 c-60 -242 -65 -521 -15 -824 l5 -35 -15 40 c-9 22 -25 85 -37 140 -25 119 -30 378 -9 485 14 74 80 284 87 277 2 -2 -5 -39 -16 -83z m1998 -1 c7 -21 22 -56 35 -78 l23 -40 -49 -105 c-55 -117 -153 -352 -187 -448 -13 -34 -25 -60 -27 -58 -21 21 131 710 165 749 22 25 27 22 40 -20z m127 -425 c-10 -121 -32 -244 -71 -397 -37 -142 -44 -161 -44 -119 0 119 90 598 112 598 5 0 7 -36 3 -82z m-212 -408 c-8 -80 -17 -172 -21 -205 l-7 -60 -38 46 -37 46 56 162 c31 89 58 160 59 159 1 -2 -4 -68 -12 -148z m-20 -496 c3 -34 4 -77 1 -96 -7 -44 47 -412 96 -658 22 -107 61 -269 87 -360 46 -162 47 -167 44 -290 -2 -69 -4 -126 -5 -127 -1 -1 -42 6 -93 16 -87 17 -94 20 -157 75 -106 93 -194 253 -236 428 -11 46 -20 104 -20 130 0 44 2 49 33 62 85 36 147 102 167 178 15 54 4 82 -56 140 -58 56 -114 153 -114 199 0 45 48 210 89 311 22 51 43 111 47 133 l7 39 52 -59 c48 -54 53 -63 58 -121z m669 -717 l-37 -69 -8 44 c-15 78 -38 127 -81 175 -37 41 -96 139 -96 158 0 4 58 -49 130 -116 l130 -122 -38 -70z m291 118 c38 -19 94 -40 126 -46 52 -11 59 -16 91 -63 91 -132 236 -251 361 -296 55 -20 88 -24 228 -27 164 -3 268 -20 359 -59 47 -19 304 -281 373 -379 32 -44 81 -122 110 -174 62 -109 72 -115 206 -131 113 -13 290 -13 582 1 l233 10 38 -25 c57 -37 126 -151 237 -388 61 -132 112 -226 135 -253 45 -51 105 -81 206 -103 63 -14 78 -21 100 -50 25 -33 113 -204 108 -209 -2 -2 -34 17 -71 42 -38 24 -89 52 -115 60 -44 15 -55 14 -157 -4 -261 -47 -468 -48 -597 -2 -32 11 -113 65 -216 142 -166 125 -267 190 -350 225 -41 17 -72 19 -330 19 -303 1 -337 5 -416 51 -76 43 -126 112 -189 256 -49 112 -67 141 -112 186 -45 45 -53 58 -53 90 0 59 -27 150 -70 237 -75 153 -217 303 -449 474 -146 107 -249 189 -374 298 l-107 95 17 29 c10 16 20 29 23 29 3 0 36 -16 73 -35z m-662 -237 c58 -67 60 -81 22 -193 l-26 -79 -15 49 c-7 27 -29 115 -47 195 l-33 145 25 -30 c13 -16 47 -56 74 -87z m514 102 c15 -24 278 -242 385 -320 358 -259 516 -452 537 -657 l6 -53 -150 0 c-115 0 -160 4 -188 16 -107 44 -441 114 -737 154 l-87 12 -11 67 c-7 38 -10 113 -8 176 7 169 42 269 181 523 50 91 60 102 72 82z m-526 -971 c6 -18 11 -42 11 -54 0 -56 83 -178 145 -213 15 -8 16 -17 6 -83 -12 -76 -60 -239 -71 -239 -11 0 -78 141 -101 213 -21 63 -21 74 -10 132 23 115 16 164 -37 268 -2 4 8 7 21 7 19 0 28 -8 36 -31z m716 -53 l60 -14 -55 -1 c-31 0 -66 6 -80 14 -22 13 -23 14 -5 14 11 0 47 -6 80 -13z m-252 -342 c190 -66 393 -162 494 -233 67 -47 72 -54 91 -113 38 -120 42 -105 -60 -225 -110 -129 -257 -283 -270 -283 -16 0 -368 331 -454 427 -99 112 -96 94 -39 275 19 59 38 132 41 163 5 41 10 55 21 51 7 -3 86 -31 176 -62z m381 19 c68 -85 67 -86 -58 -30 -63 29 -115 54 -116 57 0 3 34 3 77 2 68 -3 79 -7 97 -29z m546 17 c0 -18 -81 -172 -132 -252 l-50 -78 -43 36 c-29 24 -60 65 -91 122 -25 48 -62 108 -80 135 l-34 47 215 0 c140 0 215 -4 215 -10z m137 -92 c17 -18 79 -98 138 -177 70 -93 128 -159 165 -188 46 -35 64 -58 88 -111 130 -281 120 -816 -25 -1419 l-27 -112 -36 29 -37 29 23 68 c29 85 30 160 3 300 -98 514 -267 929 -493 1206 l-43 53 58 89 c32 49 78 128 101 176 24 48 45 88 49 88 3 1 19 -14 36 -31z m-1958 -174 c127 -255 326 -573 547 -874 38 -52 86 -118 107 -147 l37 -51 -132 -119 c-234 -209 -358 -313 -376 -313 -9 0 -81 12 -159 27 -121 23 -148 25 -181 15 -48 -15 -88 -45 -113 -86 l-18 -30 -20 47 c-72 166 -106 348 -105 557 1 267 39 416 229 893 54 136 100 246 102 244 1 -2 39 -75 82 -163z m410 -274 c265 -229 364 -360 437 -572 l22 -67 -43 -35 -42 -35 -155 217 c-224 313 -376 550 -448 692 l-22 45 57 -63 c32 -35 119 -117 194 -182z m1301 -45 c159 -215 289 -511 375 -855 71 -283 88 -416 61 -488 l-12 -34 -154 128 c-180 149 -560 475 -577 496 -9 11 -1 32 37 98 58 100 123 258 150 365 23 90 42 262 34 305 -6 27 8 60 25 60 3 0 31 -34 61 -75z m-210 -190 c-19 -104 -54 -207 -115 -330 -81 -166 -68 -159 -158 -75 -56 52 -77 79 -77 97 0 18 36 63 134 166 73 78 153 165 177 192 51 59 57 52 39 -50z m-585 -562 c23 -54 77 -116 135 -153 l51 -33 -42 -43 -43 -43 -41 72 c-22 40 -59 99 -82 133 l-42 61 22 21 c12 12 23 22 24 22 2 0 10 -17 18 -37z m310 7 c10 -11 14 -20 9 -20 -5 0 -15 9 -22 20 -7 11 -11 20 -9 20 2 0 12 -9 22 -20z m-417 -177 c64 -100 105 -182 99 -197 -3 -7 -42 -40 -88 -75 l-83 -62 -85 6 c-102 8 -302 33 -307 38 -3 2 40 42 93 88 54 46 146 128 206 182 60 53 111 97 112 97 2 0 25 -35 53 -77z m484 -126 c74 -129 180 -218 295 -250 l59 -17 23 -72 c30 -93 93 -235 136 -310 l34 -58 -87 -83 c-48 -46 -152 -144 -232 -219 -224 -209 -358 -370 -426 -513 -90 -188 -85 -358 16 -513 l40 -62 -101 0 c-331 0 -647 86 -884 241 -142 92 -334 310 -321 364 3 11 10 72 17 135 12 126 7 319 -17 539 -7 74 -13 135 -11 136 1 1 62 14 135 29 242 48 500 150 722 285 68 42 109 60 145 65 113 14 195 81 210 171 6 32 22 55 87 121 97 99 109 100 160 11z m-1350 -212 c40 -8 83 -17 96 -20 21 -5 15 -14 -70 -94 -52 -49 -107 -108 -123 -131 l-30 -43 -8 39 c-11 53 -4 214 11 242 15 26 27 27 124 7z m447 -75 c86 -11 163 -22 171 -23 8 -2 -42 -31 -111 -65 -137 -67 -319 -132 -454 -161 l-85 -19 22 31 c51 73 259 256 292 257 4 0 79 -9 165 -20z m1631 -89 c30 -25 56 -46 58 -47 7 -4 -19 -44 -28 -44 -10 0 -92 105 -113 145 -12 23 -11 23 83 -54z m198 -171 l43 -39 -12 -40 c-7 -23 -15 -41 -18 -41 -10 0 -101 94 -101 105 0 14 29 55 38 55 4 -1 26 -18 50 -40z m363 -390 c133 -176 209 -356 209 -497 0 -72 -29 -173 -66 -227 l-26 -38 -54 53 c-89 88 -97 116 -104 379 -5 216 -7 227 -32 282 -17 36 -56 87 -107 141 -47 48 -79 90 -76 98 2 8 9 28 16 44 l11 30 75 -80 c41 -44 110 -127 154 -185z m-503 -25 c29 -19 39 -32 35 -43 -23 -64 -150 -326 -202 -417 -139 -243 -260 -403 -424 -562 -105 -102 -106 -103 -154 -103 -46 0 -50 2 -88 50 -70 88 -98 155 -103 245 -11 216 121 399 627 867 l134 124 67 -67 c37 -37 85 -79 108 -94z m-2329 -167 l-2 -113 -10 97 c-9 89 -6 128 8 128 3 0 4 -51 4 -112z m2574 6 c21 -37 27 -98 37 -343 9 -230 13 -259 34 -313 13 -32 21 -60 17 -62 -19 -11 -306 -100 -421 -130 -132 -35 -369 -86 -397 -86 -8 0 25 44 73 98 190 212 376 514 514 834 l33 77 50 -29 c28 -16 55 -36 60 -46z m-2629 -325 l34 -92 -23 -82 c-49 -168 -110 -272 -223 -376 -75 -69 -172 -130 -172 -107 0 30 62 252 104 373 24 72 82 225 127 340 l83 210 17 -87 c10 -47 34 -128 53 -179z m2293 -645 c-3 -3 -12 -4 -19 -1 -8 3 -5 6 6 6 11 1 17 -2 13 -5z m-54 -14 c-32 -13 -323 -76 -416 -91 -46 -7 -82 -8 -87 -3 -5 5 42 16 118 27 70 10 183 31 252 46 130 30 171 36 133 21z"
       id="path217"
       style="fill:#c492b1;fill-opacity:1" />
  </g>
</svg>
