<svg xmlns="http://www.w3.org/2000/svg" xmlns:xlink="http://www.w3.org/1999/xlink" viewBox="0 0 488.55 260.85"><defs><style>.cls-1{fill:url(#linear-gradient);}</style><linearGradient id="linear-gradient" x1="343.31" y1="42.83" x2="88.28" y2="297.86" gradientUnits="userSpaceOnUse"><stop offset="0" stop-color="#ff6000"/><stop offset="0.03" stop-color="#ff6300"/><stop offset="0.45" stop-color="#ff8900"/><stop offset="0.79" stop-color="#ffa100"/><stop offset="1" stop-color="#fa0"/></linearGradient></defs><g id="Layer_2" data-name="Layer 2"><g id="logo-word"><path id="word_logo" data-name="word logo" class="cls-1" d="M130.64,236.22c-4.55,0-8.25-3.18-8.25-7.1v-62c0-3.92,3.7-7.11,8.25-7.11s8.25,3.19,8.25,7.11v62C138.89,233,135.2,236.22,130.64,236.22Zm-67.71-7.1v-62c0-3.92-3.69-7.11-8.25-7.11s-8.24,3.19-8.24,7.11v62c0,3.92,3.69,7.1,8.24,7.1S62.93,233,62.93,229.12Zm38-7V174.19a8.25,8.25,0,0,0-16.5,0V222.1a8.25,8.25,0,0,0,16.5,0Zm45.89-71.7a12,12,0,1,0,0-24H24.41l1-46.6A68.6,68.6,0,0,1,92.56,24a69.53,69.53,0,0,1,12.11,1.07,68.79,68.79,0,0,1,56.59,70,12,12,0,0,0,11.45,12.47q.45,0,.9,0a11.79,11.79,0,0,0,11.64-11.57C187,50.15,154.18,9.47,108.86,1.45A93.84,93.84,0,0,0,92.51,0,91.77,91.77,0,0,0,39.67,16.74a92.87,92.87,0,0,0-35,47.08C-.4,79.52-.14,97,.11,113.9c.08,5.91.17,11.49,0,16.95-.11,4.49-.3,12,4,16.38a10.79,10.79,0,0,0,8.06,3.17ZM50.58,96.07a14.12,14.12,0,0,0,28-3A14.27,14.27,0,0,0,64.49,79.53,14.11,14.11,0,0,0,50.58,91.27a12.12,12.12,0,0,0,0,4.8Zm58.79-2.4a14.12,14.12,0,0,0,28,2.4,12.12,12.12,0,0,0,0-4.8,14.12,14.12,0,0,0-28,2.4ZM62.93,252.6a7.15,7.15,0,0,0-.14-1.4,8.24,8.24,0,0,0-8.11-6.85,8.33,8.33,0,0,0-8.24,7.92A8.24,8.24,0,0,0,62.79,254,7.15,7.15,0,0,0,62.93,252.6Zm139.18-77.88v-5.66A5.07,5.07,0,0,0,197,164H160.15a5.07,5.07,0,0,0-5.08,5.07v58.17a5.07,5.07,0,0,0,5.08,5.07H197a5.07,5.07,0,0,0,5.07-5.07v-5.67a5.07,5.07,0,0,0-5.07-5.07h-20.3a5.07,5.07,0,0,1-5.08-5.07v-.59a5.07,5.07,0,0,1,5.08-5.07H194.3a5.09,5.09,0,0,0,5.08-5.08V195A5.08,5.08,0,0,0,194.3,190H176.74a5.08,5.08,0,0,1-5.08-5.08h0a5.07,5.07,0,0,1,5.08-5.07H197A5.08,5.08,0,0,0,202.11,174.72ZM223.37,164a5.07,5.07,0,0,0-5.08,5.07v58.17a5.07,5.07,0,0,0,5.08,5.07h20.39q14.94,0,24.94-9.81a34.65,34.65,0,0,0,0-48.7q-10-9.79-24.94-9.8ZM240,216.49a5.07,5.07,0,0,1-5.08-5.07V184.87A5.07,5.07,0,0,1,240,179.8h3.8q8.1,0,13.23,5.07t5.12,13.27a17.55,17.55,0,0,1-18.35,18.35Zm95.62-47.43v34.35q0,14.35-11.91,14.35t-11.9-14.35V169.06a5.08,5.08,0,0,0-5.08-5.07H300a5.07,5.07,0,0,0-5.07,5.08l.08,35.32q0,14.06,8,21.62t20.73,7.56q12.78,0,20.74-7.56t7.95-21.62l.09-35.32a5.07,5.07,0,0,0-5.08-5.08h-6.72A5.07,5.07,0,0,0,335.58,169.06Zm50.1,20.06c-.23,0-.51-.08-.83-.15a31.54,31.54,0,0,1-6.49-1.85,3,3,0,0,1-1.81-2.93,5.13,5.13,0,0,1,2.29-4.25c1.53-1.13,4-1.71,7.37-1.71q5.37,0,7.76,1.86a8.53,8.53,0,0,1,2.29,2.72,4.92,4.92,0,0,0,4.35,2.55h7.16a5,5,0,0,0,4.84-6.62,23.91,23.91,0,0,0-6.25-9.68q-6.67-6.34-20.15-6.34a33.63,33.63,0,0,0-12.59,2.34,22.76,22.76,0,0,0-9.81,7.56A19.93,19.93,0,0,0,359.86,185a19.37,19.37,0,0,0,1.86,8.78,15,15,0,0,0,5.36,6,35,35,0,0,0,7,3.57,57.74,57.74,0,0,0,8.35,2.24,13.62,13.62,0,0,1,1.41.29l1.17.3c.26,0,.6.11,1,.17a2.5,2.5,0,0,1,.38.06,54.82,54.82,0,0,1,9.23,2.45,3.53,3.53,0,0,1,2.29,3.46q0,5.76-9.76,5.76-6.24,0-9.12-2a9.51,9.51,0,0,1-3.12-3.69,5,5,0,0,0-4.5-2.65h-6.88a5.08,5.08,0,0,0-4.75,6.89c.23.61.48,1.2.76,1.79a27.11,27.11,0,0,0,5.27,7.52,23.56,23.56,0,0,0,9.17,5.56,39.39,39.39,0,0,0,13.27,2,38.08,38.08,0,0,0,7-.64,28.61,28.61,0,0,0,7-2.29,24.42,24.42,0,0,0,6.25-4.1,18.39,18.39,0,0,0,4.39-6.29,21.09,21.09,0,0,0,1.71-8.64q0-10-6.39-14.49t-21.81-7.86C386.15,189.2,385.9,189.15,385.68,189.12Zm91.09,43.18h6.7a5.07,5.07,0,0,0,4.77-6.81l-21.1-58.16a5.07,5.07,0,0,0-4.77-3.34H448.6a5.06,5.06,0,0,0-4.77,3.34l-21.11,58.16a5.08,5.08,0,0,0,4.77,6.81h6.71a5.07,5.07,0,0,0,4.8-3.42l2.52-7.31a5.07,5.07,0,0,1,4.8-3.42h18.33a5.08,5.08,0,0,1,4.8,3.42l2.52,7.31A5.06,5.06,0,0,0,476.77,232.3Zm-26.29-36.69.21-.6a5.07,5.07,0,0,1,9.59,0l.21.6a5.08,5.08,0,0,1-4.8,6.73h-.41A5.07,5.07,0,0,1,450.48,195.61Z"/></g></g></svg>