<svg xmlns="http://www.w3.org/2000/svg" xmlns:xlink="http://www.w3.org/1999/xlink" viewBox="0 0 246.28 346.65"><defs><style>.cls-1{fill:url(#linear-gradient);}</style><linearGradient id="linear-gradient" x1="228.21" y1="54.23" x2="1.96" y2="280.48" gradientUnits="userSpaceOnUse"><stop offset="0" stop-color="#ff6000"/><stop offset="0.03" stop-color="#ff6300"/><stop offset="0.45" stop-color="#ff8900"/><stop offset="0.79" stop-color="#ffa100"/><stop offset="1" stop-color="#fa0"/></linearGradient></defs><g id="Layer_2" data-name="Layer 2"><g id="logo-favicon"><path id="logo" class="cls-1" d="M173.61,313.93c-6.05,0-11-4.23-11-9.45V222.16c0-5.22,4.91-9.45,11-9.45s11,4.23,11,9.45v82.32C184.57,309.7,179.67,313.93,173.61,313.93Zm-90-9.45V222.16c0-5.22-4.91-9.45-11-9.45s-11,4.23-11,9.45v82.32c0,5.22,4.91,9.45,11,9.45S83.63,309.7,83.63,304.48Zm50.47-9.33V231.49a11,11,0,1,0-21.92,0v63.66a11,11,0,0,0,21.92,0Zm61-95.28a16,16,0,0,0,0-31.92H32.44L33.71,106A91.19,91.19,0,0,1,123,31.93a92.06,92.06,0,0,1,16.11,1.43c44.6,7.89,76.92,47.91,75.19,93.08A15.95,15.95,0,0,0,229.52,143c.4,0,.8.05,1.19.05a15.68,15.68,0,0,0,15.48-15.38c2.35-61-41.29-115.09-101.52-125.75A125.28,125.28,0,0,0,122.94,0,121.93,121.93,0,0,0,52.72,22.24,123.41,123.41,0,0,0,6.26,84.81C-.53,105.67-.19,128.9.14,151.37c.12,7.85.23,15.27,0,22.52-.16,6-.41,16,5.25,21.77a14.33,14.33,0,0,0,10.71,4.21ZM67.22,127.67a18.76,18.76,0,0,0,37.24-4,19,19,0,0,0-18.76-18,18.76,18.76,0,0,0-18.48,15.6,16.06,16.06,0,0,0,0,6.38Zm78.12-3.19a18.76,18.76,0,0,0,37.26,3.19,16.06,16.06,0,0,0,0-6.38,18.76,18.76,0,0,0-37.26,3.19ZM83.63,335.69a8.76,8.76,0,0,0-.19-1.86,10.93,10.93,0,0,0-10.78-9.1,11.07,11.07,0,0,0-10.94,10.52,10.94,10.94,0,0,0,21.72,2.3A8.76,8.76,0,0,0,83.63,335.69Z"/></g></g></svg>